<?xml version="1.0" encoding="utf-8"?>
<!-- Generator: Adobe Illustrator 27.4.1, SVG Export Plug-In . SVG Version: 6.00 Build 0)  -->
<svg version="1.1" id="Capa_1" xmlns="http://www.w3.org/2000/svg" xmlns:xlink="http://www.w3.org/1999/xlink" x="0px" y="0px"
	 viewBox="0 0 300 300" style="enable-background:new 0 0 300 300;" xml:space="preserve">
<style type="text/css">
	.st0{fill:#0E637C;}
</style>
<g>
	<g>
		<g>
			<path class="st0" d="M220.83,121.34c0-20.48-16.6-37.08-37.08-37.08c-15.42,0-28.64,9.42-34.23,22.82
				c-5.59-13.4-18.81-22.82-34.23-22.82c-20.48,0-37.08,16.6-37.08,37.08c0,0.55,0.02,1.1,0.04,1.65l-0.04,0
				c0,56.51,71.32,88.52,71.32,88.52s71.32-32.02,71.32-88.52l-0.04,0C220.81,122.44,220.83,121.9,220.83,121.34z"/>
		</g>
	</g>
	<g>
		<path class="st0" d="M45.46,252.86c-0.22-0.2-0.33-0.42-0.33-0.68c-0.01-0.26,0.08-0.49,0.27-0.69l13.42-14.94
			c0.2-0.19,0.42-0.29,0.68-0.31c0.26-0.02,0.5,0.07,0.72,0.26c0.21,0.19,0.31,0.41,0.32,0.68c0.01,0.26-0.06,0.5-0.25,0.7
			l-13.43,14.94c-0.18,0.21-0.4,0.31-0.68,0.32C45.91,253.14,45.66,253.05,45.46,252.86z M63.15,255.52l-11.12-10l1.27-1.36
			l11.19,10.06L63.15,255.52z M56.45,262.75c-0.18-0.17-0.29-0.4-0.31-0.67c-0.02-0.28,0.06-0.51,0.24-0.72l13.43-14.94
			c0.19-0.2,0.42-0.29,0.7-0.3c0.28,0,0.51,0.08,0.7,0.25c0.23,0.21,0.34,0.44,0.35,0.69c-0.01,0.25-0.09,0.48-0.28,0.69
			l-13.42,14.94c-0.18,0.2-0.41,0.31-0.68,0.32C56.91,263.03,56.67,262.94,56.45,262.75z"/>
		<path class="st0" d="M36.16,242.56l-7.07-9.11c-0.17-0.22-0.24-0.45-0.22-0.71c0.03-0.25,0.15-0.47,0.37-0.63
			c0.22-0.17,0.45-0.23,0.7-0.18c0.25,0.04,0.45,0.17,0.62,0.39l6.62,8.53l-0.62,0.08l6.99-5.43l-0.11,0.53l-5.77-7.44
			c-0.17-0.22-0.23-0.45-0.2-0.72c0.03-0.26,0.14-0.47,0.34-0.63c0.22-0.17,0.45-0.22,0.7-0.18c0.24,0.05,0.45,0.18,0.61,0.4
			l5.74,7.38l-0.42-0.03l7.16-5.56l-0.05,0.24l-6.53-8.41c-0.16-0.22-0.23-0.46-0.2-0.72c0.03-0.27,0.15-0.48,0.34-0.63
			c0.22-0.17,0.45-0.22,0.7-0.18c0.26,0.05,0.47,0.17,0.63,0.4l7.06,9.1c0.17,0.22,0.23,0.46,0.19,0.71
			c-0.04,0.26-0.16,0.47-0.36,0.62l-15.92,12.36c-0.2,0.15-0.42,0.22-0.69,0.19C36.53,242.9,36.32,242.77,36.16,242.56z"/>
		<path class="st0" d="M16.71,208.85c0.03-0.3,0.15-0.53,0.37-0.69c0.2-0.16,0.47-0.22,0.77-0.16c0.26,0.03,0.45,0.14,0.56,0.33
			s0.17,0.41,0.19,0.67c-0.09,0.93-0.06,1.87,0.12,2.83c0.17,0.95,0.49,1.89,0.98,2.79c0.6,1.13,1.37,2.08,2.28,2.84
			c0.92,0.75,1.95,1.3,3.07,1.63c1.13,0.32,2.31,0.42,3.54,0.27c1.23-0.14,2.46-0.52,3.68-1.18c1.27-0.67,2.3-1.48,3.11-2.44
			c0.81-0.95,1.39-1.99,1.75-3.11c0.36-1.13,0.47-2.28,0.35-3.45c-0.13-1.17-0.48-2.31-1.07-3.42c-0.48-0.91-1.06-1.7-1.76-2.38
			c-0.68-0.66-1.43-1.23-2.26-1.71c-0.21-0.13-0.35-0.3-0.44-0.52c-0.08-0.22-0.06-0.45,0.05-0.7c0.13-0.25,0.32-0.42,0.58-0.51
			c0.26-0.1,0.5-0.07,0.72,0.07c0.54,0.31,1.11,0.71,1.72,1.2c0.61,0.49,1.17,1.04,1.69,1.67c0.52,0.62,0.96,1.29,1.34,2
			c0.71,1.33,1.14,2.72,1.28,4.15c0.13,1.43,0.01,2.83-0.4,4.2c-0.4,1.37-1.08,2.63-2.02,3.8c-0.95,1.16-2.18,2.15-3.68,2.94
			c-1.45,0.77-2.91,1.22-4.38,1.34c-1.48,0.13-2.9-0.01-4.27-0.42s-2.63-1.08-3.75-2c-1.13-0.93-2.05-2.06-2.77-3.42
			c-0.56-1.06-0.95-2.15-1.17-3.29C16.65,211.04,16.6,209.93,16.71,208.85z"/>
		<path class="st0" d="M6.55,184.62c-0.09-0.29-0.07-0.53,0.06-0.76c0.13-0.23,0.33-0.38,0.59-0.46l19.2-5.91
			c0.26-0.06,0.52-0.03,0.75,0.08c0.23,0.11,0.38,0.31,0.48,0.59c0.08,0.26,0.05,0.5-0.07,0.75c-0.13,0.24-0.32,0.4-0.58,0.47
			l-19.2,5.91c-0.26,0.08-0.51,0.06-0.75-0.08C6.79,185.08,6.62,184.87,6.55,184.62z M10.89,198.74c-0.08-0.24-0.05-0.49,0.08-0.74
			c0.12-0.24,0.31-0.4,0.58-0.48l19.2-5.91c0.26-0.06,0.52-0.03,0.75,0.1c0.24,0.14,0.4,0.33,0.47,0.56
			c0.1,0.31,0.08,0.56-0.06,0.78c-0.13,0.22-0.32,0.36-0.58,0.45l-19.21,5.9c-0.25,0.08-0.51,0.06-0.74-0.06
			C11.13,199.22,10.98,199.01,10.89,198.74z M20.35,195.98l-4.4-14.3l1.78-0.52l4.43,14.39L20.35,195.98z"/>
		<path class="st0" d="M12.82,150.91c1.65-0.16,3.18-0.05,4.6,0.33c1.41,0.37,2.67,0.98,3.78,1.82c1.1,0.84,1.99,1.88,2.67,3.11
			c0.68,1.23,1.09,2.61,1.24,4.14c0.15,1.55,0.01,2.98-0.42,4.31c-0.43,1.33-1.1,2.51-2.03,3.55c-0.93,1.04-2.04,1.89-3.36,2.55
			c-1.32,0.65-2.8,1.06-4.45,1.22c-1.65,0.17-3.19,0.05-4.6-0.33c-1.43-0.4-2.69-1.01-3.79-1.85c-1.1-0.84-2-1.87-2.67-3.09
			c-0.68-1.22-1.09-2.61-1.24-4.15c-0.15-1.53-0.01-2.96,0.42-4.3s1.11-2.53,2.03-3.57c0.92-1.03,2.04-1.87,3.36-2.53
			C9.68,151.47,11.17,151.07,12.82,150.91z M13.01,152.92c-1.85,0.18-3.45,0.71-4.79,1.57c-1.34,0.86-2.35,1.98-3.01,3.32
			c-0.68,1.34-0.93,2.85-0.77,4.52c0.17,1.65,0.7,3.08,1.62,4.28c0.93,1.21,2.12,2.1,3.6,2.69c1.48,0.59,3.15,0.78,5.01,0.61
			c1.86-0.18,3.46-0.7,4.81-1.56c1.34-0.86,2.34-1.97,3.01-3.33c0.67-1.37,0.93-2.87,0.75-4.52c-0.16-1.67-0.69-3.1-1.61-4.28
			c-0.92-1.19-2.12-2.08-3.6-2.67C16.55,152.94,14.87,152.73,13.01,152.92z"/>
		<path class="st0" d="M7.93,112.61c0.21-0.22,0.45-0.32,0.72-0.31c0.26,0.01,0.49,0.13,0.71,0.36c0.18,0.19,0.25,0.39,0.22,0.61
			c-0.03,0.22-0.13,0.43-0.26,0.64c-0.65,0.66-1.22,1.42-1.68,2.28c-0.45,0.86-0.79,1.78-0.97,2.8c-0.24,1.25-0.23,2.47,0.01,3.64
			c0.26,1.17,0.72,2.23,1.39,3.19c0.68,0.97,1.55,1.78,2.6,2.42c1.04,0.66,2.26,1.11,3.62,1.37c1.4,0.26,2.72,0.27,3.96,0.03
			c1.23-0.24,2.33-0.69,3.3-1.35c0.98-0.66,1.79-1.48,2.42-2.47c0.64-1,1.07-2.11,1.31-3.34c0.19-1.01,0.22-2,0.1-2.95
			c-0.13-0.95-0.36-1.87-0.7-2.74c-0.08-0.23-0.09-0.45-0.02-0.68c0.07-0.22,0.23-0.39,0.47-0.52c0.26-0.12,0.52-0.13,0.77-0.05
			c0.26,0.09,0.44,0.26,0.52,0.52c0.23,0.57,0.43,1.25,0.6,2c0.16,0.76,0.26,1.54,0.28,2.36c0.01,0.81-0.05,1.62-0.2,2.4
			c-0.29,1.48-0.81,2.83-1.59,4.04c-0.79,1.21-1.76,2.23-2.93,3.04c-1.16,0.81-2.49,1.38-3.96,1.7c-1.47,0.33-3.04,0.33-4.7,0.02
			c-1.62-0.31-3.04-0.86-4.28-1.69c-1.23-0.81-2.26-1.82-3.07-2.99c-0.81-1.18-1.38-2.49-1.69-3.91c-0.31-1.43-0.33-2.89-0.04-4.4
			c0.22-1.18,0.61-2.28,1.14-3.31C6.51,114.29,7.16,113.39,7.93,112.61z"/>
		<path class="st0" d="M26.94,87.59c1.55,0.63,2.85,1.43,3.94,2.42c1.09,0.99,1.92,2.11,2.51,3.37c0.59,1.25,0.9,2.58,0.93,3.99
			c0.03,1.4-0.23,2.82-0.81,4.24c-0.57,1.44-1.37,2.65-2.35,3.64c-1,0.98-2.13,1.72-3.43,2.21c-1.3,0.49-2.69,0.73-4.15,0.7
			c-1.48-0.03-2.98-0.36-4.52-0.97c-1.54-0.61-2.85-1.43-3.93-2.43c-1.07-1-1.91-2.12-2.51-3.38c-0.59-1.26-0.91-2.59-0.94-3.98
			c-0.04-1.39,0.23-2.81,0.81-4.26c0.57-1.41,1.36-2.63,2.35-3.62c1-1,2.15-1.73,3.44-2.23c1.3-0.49,2.68-0.72,4.15-0.69
			C23.9,86.65,25.4,86.98,26.94,87.59z M26.2,89.46c-1.73-0.7-3.4-0.97-4.99-0.82c-1.59,0.16-2.99,0.68-4.2,1.55
			c-1.22,0.88-2.14,2.1-2.76,3.66c-0.62,1.54-0.8,3.05-0.54,4.55c0.26,1.5,0.91,2.84,1.96,4.05c1.04,1.2,2.44,2.15,4.17,2.85
			c1.73,0.69,3.39,0.97,4.98,0.83c1.58-0.14,2.99-0.67,4.21-1.57c1.22-0.9,2.14-2.12,2.77-3.66c0.62-1.56,0.8-3.08,0.54-4.55
			c-0.26-1.48-0.92-2.83-1.96-4.03C29.32,91.12,27.92,90.16,26.2,89.46z"/>
		<path class="st0" d="M30.98,60.36c0.15-0.23,0.34-0.36,0.56-0.4c0.22-0.04,0.45,0.01,0.65,0.15l16.79,11.15
			c0.26,0.17,0.42,0.4,0.45,0.67c0.04,0.26-0.01,0.49-0.15,0.7c-0.08,0.13-0.17,0.23-0.29,0.31c-0.13,0.08-0.25,0.13-0.38,0.15
			l-23.52,1.24l0.04-0.62l15.55,10.33c0.2,0.13,0.31,0.31,0.36,0.54c0.06,0.24,0.01,0.46-0.13,0.66c-0.15,0.23-0.33,0.36-0.57,0.4
			c-0.22,0.03-0.43-0.01-0.62-0.14L22.85,74.31c-0.25-0.16-0.39-0.36-0.43-0.6c-0.04-0.25,0.01-0.47,0.15-0.68
			c0.07-0.11,0.17-0.21,0.29-0.3c0.13-0.1,0.26-0.15,0.42-0.14l23.26-1.21l0.29,0.57l-15.6-10.36c-0.21-0.14-0.33-0.33-0.38-0.56
			C30.79,60.79,30.84,60.57,30.98,60.36z"/>
		<path class="st0" d="M55.51,37.88l6.53,19.41c0.08,0.22,0.1,0.4,0.05,0.58c-0.04,0.17-0.14,0.33-0.28,0.46
			c-0.24,0.2-0.47,0.29-0.68,0.26c-0.22-0.01-0.4-0.12-0.55-0.29c-0.09-0.06-0.16-0.17-0.22-0.31l-6.92-20.86
			c-0.09-0.23-0.1-0.42-0.03-0.6c0.05-0.17,0.16-0.33,0.32-0.47c0.17-0.15,0.36-0.23,0.56-0.24c0.19-0.01,0.38,0.02,0.57,0.11
			l19.45,10c0.11,0.06,0.21,0.15,0.3,0.24c0.19,0.22,0.26,0.45,0.22,0.7c-0.03,0.24-0.15,0.45-0.34,0.61
			c-0.16,0.13-0.33,0.22-0.54,0.22c-0.2,0.01-0.38-0.02-0.57-0.1l-18.4-9.45L55.51,37.88z M59.69,51.72l-0.61-1.93l7.42-6.34
			l1.5,1.16L59.69,51.72z"/>
		<path class="st0" d="M70.19,23.63c0.12-0.07,0.27-0.12,0.45-0.13c0.18-0.01,0.33,0.01,0.49,0.07l13.92,7.2l-0.76,0.39l1.33-15.61
			c0.06-0.38,0.24-0.64,0.55-0.77c0.22-0.12,0.45-0.15,0.69-0.08c0.24,0.07,0.43,0.22,0.57,0.47l9.75,17.63
			c0.12,0.22,0.15,0.46,0.06,0.72c-0.08,0.26-0.24,0.46-0.48,0.6c-0.24,0.13-0.49,0.15-0.74,0.08c-0.26-0.07-0.45-0.22-0.56-0.44
			l-8.83-15.95l0.52-0.22L86,32c0.01,0.14-0.03,0.28-0.11,0.4c-0.08,0.13-0.2,0.24-0.31,0.31c-0.13,0.07-0.28,0.1-0.43,0.1
			c-0.15,0.01-0.29-0.03-0.42-0.1l-12.9-6.78l0.33-0.65l9.05,16.36c0.13,0.22,0.15,0.46,0.09,0.71c-0.06,0.25-0.22,0.45-0.46,0.58
			c-0.24,0.13-0.47,0.15-0.71,0.07c-0.24-0.08-0.42-0.24-0.54-0.45l-9.76-17.64c-0.11-0.2-0.14-0.43-0.08-0.69
			C69.8,23.97,69.95,23.77,70.19,23.63z"/>
		<path class="st0" d="M120.5,14.52c0.47,1.59,0.67,3.11,0.57,4.58c-0.1,1.46-0.46,2.81-1.07,4.06s-1.46,2.32-2.53,3.22
			c-1.08,0.91-2.35,1.57-3.82,2.02c-1.49,0.44-2.93,0.58-4.31,0.42c-1.39-0.17-2.67-0.61-3.87-1.31c-1.2-0.7-2.25-1.64-3.14-2.81
			c-0.9-1.16-1.59-2.54-2.06-4.14c-0.47-1.58-0.65-3.11-0.54-4.58c0.1-1.46,0.46-2.82,1.07-4.07c0.62-1.24,1.46-2.32,2.53-3.21
			c1.06-0.91,2.34-1.58,3.83-2.02c1.46-0.45,2.9-0.58,4.29-0.42c1.39,0.17,2.7,0.6,3.89,1.3c1.2,0.7,2.24,1.64,3.12,2.81
			C119.34,11.55,120.03,12.93,120.5,14.52z M118.57,15.1c-0.54-1.79-1.36-3.26-2.47-4.4c-1.11-1.15-2.39-1.92-3.83-2.33
			c-1.44-0.39-2.97-0.36-4.58,0.13c-1.58,0.47-2.88,1.27-3.9,2.41c-1,1.14-1.64,2.49-1.93,4.05c-0.29,1.57-0.17,3.25,0.37,5.03
			c0.53,1.79,1.35,3.27,2.45,4.42c1.1,1.14,2.39,1.92,3.85,2.31c1.46,0.4,3,0.36,4.58-0.12c1.61-0.48,2.9-1.3,3.9-2.42
			c0.98-1.13,1.63-2.48,1.93-4.05C119.23,18.57,119.11,16.89,118.57,15.1z"/>
		<path class="st0" d="M131.41,23.97c-0.31,0.03-0.58-0.04-0.79-0.21c-0.22-0.17-0.33-0.38-0.36-0.63l-1.89-20.06
			c-0.02-0.25,0.04-0.48,0.2-0.68c0.17-0.21,0.38-0.33,0.65-0.36l8.46-0.79c1.2-0.11,2.28,0.04,3.27,0.47c1,0.42,1.8,1.06,2.41,1.91
			c0.62,0.85,0.99,1.85,1.09,3c0.09,0.92,0,1.78-0.26,2.57s-0.67,1.48-1.23,2.08c-0.55,0.59-1.2,1.06-1.92,1.4l-1.13-0.26
			c0.78,0.01,1.52,0.19,2.23,0.56c0.71,0.36,1.31,0.9,1.78,1.6c0.48,0.7,0.77,1.56,0.89,2.59c0.11,0.89,0.22,1.59,0.34,2.08
			c0.12,0.49,0.26,0.86,0.44,1.1c0.16,0.23,0.37,0.42,0.62,0.54c0.22,0.1,0.38,0.27,0.47,0.49c0.1,0.22,0.09,0.45-0.02,0.66
			c-0.06,0.18-0.17,0.31-0.33,0.4c-0.15,0.1-0.32,0.15-0.49,0.16c-0.16,0.02-0.33-0.01-0.48-0.08c-0.32-0.13-0.65-0.36-0.98-0.7
			c-0.32-0.32-0.62-0.82-0.89-1.49c-0.26-0.68-0.45-1.63-0.56-2.86c-0.08-0.81-0.27-1.47-0.57-1.96c-0.32-0.49-0.69-0.86-1.13-1.11
			c-0.43-0.26-0.91-0.42-1.4-0.47c-0.5-0.06-0.98-0.06-1.41-0.02l-7.31,0.68l0.31-0.5l0.83,8.87c0.03,0.25-0.03,0.47-0.18,0.68
			C131.9,23.83,131.68,23.95,131.41,23.97z M130.93,12.82l7.86-0.74c0.71-0.13,1.35-0.42,1.93-0.88c0.59-0.46,1.04-1.07,1.37-1.82
			c0.33-0.76,0.45-1.62,0.36-2.55c-0.11-1.19-0.61-2.15-1.49-2.86c-0.88-0.7-1.97-1-3.27-0.88l-7.49,0.71l0.18-0.43l0.93,9.85
			L130.93,12.82z"/>
		<path class="st0" d="M170.09,16.79c-0.82-0.13-1.54-0.45-2.18-0.98c-0.63-0.52-1.09-1.15-1.41-1.89
			c-0.31-0.75-0.39-1.54-0.26-2.35c0.13-0.87,0.47-1.61,1-2.23s1.16-1.09,1.91-1.39c0.75-0.31,1.54-0.4,2.35-0.27
			c0.85,0.14,1.58,0.46,2.21,0.98c0.62,0.52,1.08,1.14,1.38,1.9c0.31,0.75,0.39,1.55,0.26,2.42c-0.13,0.81-0.45,1.55-0.96,2.16
			c-0.52,0.62-1.16,1.08-1.9,1.39C171.73,16.83,170.93,16.92,170.09,16.79z"/>
		<path class="st0" d="M223.47,22.33l-16.73,12.46c-0.4,0.33-0.81,0.52-1.27,0.56c-0.44,0.05-0.85-0.03-1.22-0.26
			c-0.59-0.33-0.93-0.75-1.02-1.25c-0.1-0.49,0.01-0.97,0.28-1.45c0.12-0.2,0.27-0.39,0.47-0.56l19.5-14.79
			c0.42-0.33,0.9-0.51,1.39-0.54c0.5-0.03,0.95,0.1,1.33,0.38c0.39,0.22,0.7,0.55,0.89,0.98c0.2,0.43,0.26,0.89,0.17,1.39
			l-3.13,23.81c-0.06,0.35-0.15,0.64-0.3,0.88c-0.33,0.59-0.8,0.95-1.38,1.07c-0.59,0.13-1.11,0.06-1.57-0.21
			c-0.38-0.24-0.68-0.56-0.85-0.98c-0.17-0.42-0.23-0.9-0.16-1.41l2.52-20.44L223.47,22.33z M210.08,31.41l3.99-2.71l8.8,5.14
			l-1.57,4.12L210.08,31.41z"/>
		<path class="st0" d="M251.5,43.94c0.49,0.43,0.75,0.96,0.77,1.57c0.03,0.62-0.18,1.17-0.61,1.66l-6.39,7.16
			c-1.78,1.99-3.75,3.07-5.89,3.25c-2.15,0.17-4.26-0.67-6.35-2.53c-2.09-1.86-3.16-3.87-3.22-6.01c-0.06-2.15,0.8-4.22,2.57-6.21
			l6.39-7.15c0.44-0.49,0.97-0.76,1.58-0.8c0.61-0.04,1.16,0.15,1.65,0.59c0.49,0.44,0.74,0.96,0.77,1.58
			c0.03,0.61-0.17,1.16-0.61,1.64l-6.39,7.16c-1.02,1.15-1.53,2.22-1.51,3.23c0.01,1.01,0.53,1.96,1.54,2.87
			c1.03,0.92,2.05,1.34,3.05,1.23c1-0.1,2.01-0.72,3.04-1.87l6.39-7.16c0.42-0.48,0.95-0.75,1.57-0.79
			C250.46,43.3,251.01,43.49,251.5,43.94z"/>
		<path class="st0" d="M246.18,68.05c-0.4-0.52-0.56-1.07-0.48-1.69c0.08-0.61,0.38-1.11,0.89-1.52l12.27-9.64
			c0.52-0.4,1.08-0.57,1.69-0.51c0.61,0.06,1.11,0.35,1.52,0.87c0.41,0.51,0.56,1.07,0.49,1.68c-0.08,0.61-0.38,1.12-0.9,1.53
			l-2.79,2.19l1.83-1.78c0.64-0.15,1.28-0.2,1.92-0.14c0.65,0.06,1.25,0.21,1.85,0.45c0.59,0.24,1.14,0.56,1.65,0.96
			c0.5,0.4,0.95,0.85,1.34,1.35c0.46,0.59,0.69,1.23,0.68,1.9c-0.02,0.66-0.26,1.18-0.72,1.54c-0.65,0.52-1.25,0.71-1.8,0.6
			c-0.56-0.11-0.99-0.36-1.29-0.76c-0.31-0.38-0.5-0.77-0.6-1.18c-0.1-0.42-0.31-0.83-0.63-1.22c-0.28-0.36-0.65-0.65-1.1-0.88
			c-0.46-0.24-0.98-0.37-1.59-0.4c-0.59-0.03-1.23,0.08-1.9,0.3c-0.68,0.22-1.37,0.61-2.08,1.18l-7.04,5.53
			c-0.52,0.41-1.08,0.58-1.69,0.51C247.09,68.86,246.59,68.57,246.18,68.05z"/>
		<path class="st0" d="M260.06,89.48c-1.02-1.88-1.5-3.73-1.46-5.54c0.03-1.81,0.53-3.45,1.48-4.92c0.95-1.47,2.28-2.67,3.99-3.59
			c1.99-1.07,3.91-1.59,5.76-1.54c1.84,0.05,3.5,0.53,4.95,1.43c1.46,0.9,2.58,2.08,3.37,3.54c0.61,1.14,0.96,2.33,1.04,3.59
			c0.08,1.26-0.08,2.49-0.47,3.71c-0.4,1.21-1,2.33-1.81,3.36c-0.82,1.03-1.82,1.87-3.02,2.51c-0.54,0.26-1.09,0.29-1.64,0.06
			c-0.56-0.22-0.98-0.59-1.26-1.13l-6.85-12.7l2.79-2.79l6.58,12.2l-1.06-0.36l0.89-0.49c0.63-0.38,1.08-0.93,1.37-1.6
			c0.28-0.7,0.41-1.42,0.38-2.19c-0.03-0.77-0.23-1.5-0.61-2.18c-0.36-0.67-0.78-1.25-1.26-1.72c-0.5-0.48-1.07-0.82-1.71-1.02
			c-0.65-0.2-1.4-0.22-2.24-0.08c-0.84,0.13-1.81,0.5-2.89,1.09c-1.21,0.64-2.08,1.43-2.64,2.39c-0.56,0.95-0.85,1.93-0.86,2.95
			c0.01,1.02,0.24,1.96,0.72,2.86c0.43,0.81,0.86,1.43,1.25,1.85c0.4,0.42,0.77,0.72,1.12,0.92c0.35,0.2,0.65,0.38,0.92,0.56
			c0.41,0.29,0.72,0.61,0.91,0.97c0.26,0.49,0.32,0.98,0.16,1.48c-0.16,0.5-0.46,0.87-0.91,1.11c-0.59,0.32-1.31,0.3-2.12-0.06
			c-0.8-0.31-1.66-0.89-2.59-1.73C261.42,91.57,260.65,90.59,260.06,89.48z"/>
		<path class="st0" d="M270.7,107.41c-0.62,0.22-1.21,0.2-1.78-0.07c-0.56-0.27-0.95-0.71-1.17-1.32c-0.21-0.59-0.17-1.16,0.09-1.72
			c0.27-0.56,0.72-0.94,1.33-1.15l22-7.84c0.63-0.22,1.21-0.2,1.78,0.07c0.56,0.27,0.95,0.71,1.17,1.32
			c0.22,0.63,0.2,1.21-0.08,1.74c-0.28,0.54-0.72,0.92-1.33,1.14L270.7,107.41z"/>
		<path class="st0" d="M274.23,119.98c-0.63,0.16-1.22,0.08-1.75-0.23c-0.54-0.31-0.88-0.79-1.03-1.42
			c-0.15-0.64-0.07-1.22,0.25-1.73c0.33-0.52,0.81-0.86,1.46-1.01l15.16-3.71c0.63-0.16,1.21-0.08,1.74,0.22
			c0.54,0.31,0.87,0.79,1.03,1.42c0.16,0.64,0.07,1.23-0.26,1.74c-0.33,0.52-0.81,0.86-1.44,1.01L274.23,119.98z M293.46,112.89
			c-0.2-0.83-0.22-1.46-0.03-1.86c0.19-0.4,0.62-0.69,1.31-0.86l0.69-0.17c0.72-0.17,1.25-0.1,1.6,0.22
			c0.34,0.32,0.62,0.87,0.81,1.66c0.2,0.86,0.22,1.48,0.03,1.89c-0.18,0.4-0.61,0.69-1.3,0.86l-0.69,0.17
			c-0.71,0.17-1.24,0.1-1.58-0.2C293.93,114.29,293.66,113.73,293.46,112.89z"/>
		<path class="st0" d="M295.72,142.54c0.06,0.65-0.12,1.21-0.5,1.68c-0.39,0.46-0.92,0.72-1.6,0.79l-15.92,1.4
			c-0.65,0.06-1.23-0.1-1.7-0.49c-0.47-0.38-0.75-0.91-0.8-1.56c-0.06-0.65,0.12-1.21,0.52-1.68c0.4-0.46,0.93-0.72,1.59-0.78
			l1.84-0.17l-0.26,0.86c-0.33,0.03-0.75-0.12-1.23-0.42c-0.5-0.31-1-0.75-1.5-1.31c-0.52-0.57-0.95-1.24-1.34-2.03
			c-0.39-0.79-0.63-1.66-0.7-2.61c-0.15-1.73,0.15-3.34,0.92-4.83c0.77-1.48,1.89-2.7,3.39-3.65c1.5-0.95,3.26-1.53,5.29-1.7
			c2.05-0.19,3.9,0.06,5.54,0.75c1.64,0.67,2.97,1.66,3.98,2.96c1.01,1.3,1.6,2.8,1.74,4.47c0.09,1.08,0.02,2.09-0.23,3.02
			c-0.24,0.93-0.59,1.76-1.03,2.46c-0.45,0.71-0.91,1.27-1.39,1.68c-0.48,0.41-0.9,0.63-1.24,0.66l-0.62-1.32l2.74-0.24
			c0.65-0.06,1.22,0.11,1.69,0.5C295.39,141.36,295.66,141.88,295.72,142.54z M278.29,136.42c0.1,1.1,0.46,2.04,1.09,2.82
			c0.63,0.78,1.43,1.36,2.42,1.74c1,0.38,2.08,0.52,3.27,0.41c1.21-0.1,2.26-0.43,3.18-0.98c0.91-0.55,1.6-1.26,2.08-2.13
			c0.48-0.88,0.67-1.87,0.57-2.97c-0.1-1.09-0.45-2.01-1.07-2.79c-0.63-0.78-1.43-1.36-2.43-1.74c-1-0.38-2.1-0.52-3.31-0.41
			c-1.17,0.1-2.21,0.43-3.13,0.98c-0.91,0.54-1.61,1.26-2.08,2.14C278.39,134.35,278.2,135.34,278.29,136.42z"/>
		<path class="st0" d="M280.63,171.46c0.14-0.83,0.48-1.54,1.01-2.17c0.53-0.63,1.18-1.08,1.93-1.37c0.76-0.29,1.55-0.36,2.36-0.22
			c0.86,0.15,1.6,0.5,2.21,1.04c0.61,0.54,1.06,1.19,1.34,1.94s0.36,1.55,0.22,2.36c-0.15,0.84-0.48,1.57-1.02,2.18
			c-0.53,0.61-1.17,1.06-1.93,1.34c-0.75,0.3-1.57,0.36-2.42,0.22c-0.82-0.15-1.53-0.49-2.15-1.02c-0.61-0.53-1.06-1.17-1.34-1.92
			C280.56,173.1,280.47,172.29,280.63,171.46z"/>
		<path class="st0" d="M285.1,211.96c-0.52,1.13-1.27,2.03-2.26,2.72c-0.99,0.68-2.1,1.06-3.34,1.15c-1.23,0.09-2.48-0.15-3.74-0.72
			c-1.24-0.56-2.24-1.34-3.01-2.34c-0.77-1-1.23-2.09-1.41-3.3c-0.18-1.21-0.01-2.38,0.5-3.51l2.92-6.4l0.31,0.4l-7.95-3.61
			c-0.36-0.16-0.61-0.41-0.76-0.75c-0.15-0.35-0.14-0.7,0.02-1.06c0.17-0.38,0.44-0.63,0.8-0.74c0.36-0.12,0.71-0.1,1.07,0.06
			l19.48,8.85c0.36,0.16,0.61,0.42,0.75,0.79c0.14,0.37,0.13,0.73-0.03,1.09L285.1,211.96z M274.32,207.06
			c-0.31,0.68-0.4,1.37-0.26,2.07c0.13,0.7,0.45,1.37,0.95,1.98c0.5,0.61,1.14,1.09,1.92,1.43c0.78,0.36,1.55,0.52,2.31,0.47
			c0.77-0.03,1.44-0.23,2.04-0.61c0.61-0.38,1.06-0.9,1.37-1.57l2.9-6.4l0.28,0.39l-9.02-4.1l0.42-0.08L274.32,207.06z"/>
		<path class="st0" d="M263.3,236.05c-0.22,0.33-0.52,0.52-0.88,0.59c-0.38,0.06-0.72-0.01-1.04-0.24l-12.5-8.77
			c-0.32-0.23-0.52-0.53-0.59-0.9c-0.08-0.38-0.01-0.73,0.22-1.06c0.24-0.33,0.55-0.54,0.93-0.59c0.38-0.06,0.73,0.02,1.05,0.25
			l2.7,1.89l-0.33,0.57c-0.43-0.3-0.79-0.77-1.07-1.39s-0.47-1.32-0.54-2.12c-0.08-0.79-0.02-1.62,0.17-2.47s0.55-1.67,1.09-2.44
			c0.91-1.28,2.05-2.21,3.45-2.77c1.39-0.56,2.87-0.73,4.44-0.5c1.56,0.22,3.09,0.86,4.56,1.89c1.5,1.04,2.61,2.27,3.34,3.66
			c0.72,1.4,1.05,2.83,0.99,4.3c-0.05,1.48-0.53,2.83-1.41,4.11c-0.57,0.81-1.24,1.48-1.99,1.99c-0.76,0.51-1.55,0.86-2.36,1.07
			c-0.82,0.2-1.61,0.25-2.35,0.15c-0.75-0.1-1.39-0.35-1.94-0.73l0.69-0.62l3.09,2.17c0.32,0.24,0.52,0.54,0.58,0.9
			C263.63,235.36,263.55,235.71,263.3,236.05z M254.42,221.1c-0.66,0.94-1,1.96-1.01,3.02c-0.01,1.07,0.25,2.1,0.8,3.1
			c0.54,1.01,1.35,1.88,2.41,2.62c1.04,0.73,2.12,1.18,3.25,1.35c1.12,0.17,2.18,0.07,3.18-0.31s1.82-1.03,2.49-1.98
			c0.65-0.93,0.99-1.92,1.02-2.99c0.03-1.07-0.22-2.1-0.77-3.1c-0.54-1-1.33-1.87-2.4-2.61c-1.06-0.75-2.15-1.21-3.27-1.39
			c-1.13-0.19-2.19-0.08-3.19,0.3C255.91,219.49,255.09,220.15,254.42,221.1z"/>
		<path class="st0" d="M249.24,251.94c-1.11,1.1-2.22,1.73-3.32,1.9c-1.1,0.17-2.17-0.01-3.2-0.52c-1.03-0.5-2.03-1.24-2.97-2.21
			l-6.79-6.92c-0.28-0.29-0.42-0.62-0.42-1c-0.01-0.38,0.13-0.71,0.4-0.99c0.3-0.29,0.64-0.42,1.02-0.4
			c0.37,0.02,0.7,0.17,0.98,0.45l6.74,6.87c0.61,0.63,1.27,1.09,1.95,1.42c0.7,0.33,1.41,0.42,2.15,0.29
			c0.75-0.13,1.48-0.56,2.23-1.29c0.7-0.68,1.18-1.46,1.46-2.33c0.27-0.87,0.33-1.73,0.18-2.58c-0.16-0.85-0.54-1.59-1.16-2.22
			l-6.74-6.87c-0.27-0.27-0.42-0.61-0.42-1c0.01-0.38,0.15-0.71,0.42-0.99c0.29-0.26,0.61-0.4,1-0.4c0.39,0.02,0.72,0.17,0.99,0.44
			l10.55,10.77c0.29,0.29,0.43,0.63,0.43,1c-0.01,0.38-0.15,0.7-0.42,0.98c-0.3,0.29-0.63,0.42-1,0.42
			c-0.36-0.01-0.69-0.17-0.98-0.47l-1.7-1.74l-0.03-1.02c0.33,0.51,0.57,1.14,0.7,1.86c0.13,0.73,0.15,1.48,0.04,2.27
			c-0.1,0.77-0.33,1.55-0.68,2.28C250.31,250.7,249.84,251.37,249.24,251.94z"/>
		<path class="st0" d="M223.94,271.2c-0.32,0.22-0.68,0.29-1.04,0.22c-0.36-0.07-0.66-0.27-0.88-0.6l-8.5-12.69
			c-0.22-0.33-0.29-0.68-0.23-1.06c0.07-0.38,0.27-0.68,0.59-0.89c0.35-0.23,0.71-0.31,1.09-0.22c0.37,0.08,0.66,0.28,0.88,0.61
			l1.82,2.74l-0.5,0.42c-0.3-0.44-0.46-1-0.5-1.69c-0.04-0.68,0.03-1.4,0.25-2.17c0.21-0.76,0.55-1.51,1.04-2.24
			c0.48-0.72,1.12-1.36,1.91-1.87c1.3-0.88,2.7-1.32,4.21-1.34c1.5-0.03,2.94,0.36,4.32,1.12c1.38,0.77,2.57,1.91,3.57,3.41
			c1.02,1.51,1.61,3.05,1.78,4.63c0.17,1.56-0.03,3.02-0.61,4.37c-0.59,1.35-1.52,2.46-2.8,3.32c-0.83,0.56-1.69,0.93-2.58,1.14
			c-0.89,0.21-1.76,0.26-2.58,0.15c-0.84-0.11-1.59-0.34-2.25-0.71c-0.66-0.36-1.18-0.82-1.55-1.38l0.86-0.33l2.1,3.14
			c0.22,0.33,0.29,0.67,0.22,1.04C224.5,270.67,224.29,270.97,223.94,271.2z M221.05,254.05c-0.96,0.64-1.64,1.46-2.03,2.44
			c-0.39,0.99-0.52,2.05-0.36,3.19c0.15,1.14,0.59,2.24,1.3,3.32c0.7,1.05,1.55,1.86,2.54,2.42c1,0.56,2.02,0.85,3.09,0.86
			c1.06,0,2.08-0.31,3.03-0.96c0.94-0.63,1.62-1.43,2.03-2.42c0.41-0.98,0.54-2.03,0.4-3.16c-0.14-1.13-0.58-2.23-1.29-3.31
			c-0.72-1.07-1.57-1.89-2.56-2.47c-0.99-0.58-2.01-0.86-3.09-0.87C223.02,253.09,222,253.41,221.05,254.05z"/>
		<path class="st0" d="M202.53,289.88c-0.36,0.16-0.71,0.16-1.07,0.02c-0.34-0.15-0.59-0.4-0.75-0.79l-8.89-20.98
			c-0.15-0.37-0.17-0.72-0.03-1.09c0.14-0.36,0.39-0.61,0.75-0.77c0.38-0.16,0.75-0.17,1.11-0.01c0.35,0.15,0.6,0.4,0.75,0.77
			l1.29,3.03l-0.52,0.45c-0.21-0.48-0.28-1.08-0.21-1.77c0.07-0.7,0.28-1.41,0.63-2.15c0.35-0.74,0.83-1.41,1.44-2.05
			c0.61-0.61,1.36-1.11,2.23-1.48c1.45-0.62,2.9-0.79,4.37-0.53s2.8,0.88,4.02,1.91c1.22,1.01,2.19,2.35,2.88,4.01
			c0.71,1.68,1.01,3.3,0.89,4.88c-0.13,1.58-0.6,2.98-1.43,4.2c-0.82,1.22-1.94,2.12-3.36,2.72c-0.9,0.38-1.8,0.59-2.7,0.61
			c-0.9,0.03-1.76-0.08-2.57-0.33c-0.81-0.26-1.5-0.63-2.1-1.1c-0.59-0.48-1.02-1.02-1.27-1.64l0.91-0.16l4.4,10.39
			c0.15,0.37,0.17,0.72,0.03,1.08C203.17,289.47,202.91,289.72,202.53,289.88z M199.96,265.54c-1.07,0.45-1.88,1.12-2.47,2.01
			c-0.57,0.88-0.9,1.89-0.95,3.04c-0.08,1.14,0.15,2.31,0.65,3.5c0.51,1.19,1.19,2.15,2.06,2.9c0.88,0.75,1.82,1.23,2.86,1.42
			c1.03,0.2,2.09,0.08,3.15-0.38c1.04-0.43,1.86-1.09,2.44-1.99c0.59-0.88,0.92-1.91,0.98-3.04c0.08-1.14-0.15-2.31-0.65-3.5
			c-0.49-1.16-1.18-2.12-2.05-2.88s-1.82-1.23-2.88-1.43C202.05,264.98,201.01,265.1,199.96,265.54z"/>
		<path class="st0" d="M176.01,270.49c1.82-0.4,3.5-0.38,5.02,0.09c1.53,0.46,2.81,1.27,3.85,2.46c1.04,1.17,1.76,2.64,2.16,4.4
			c0.43,1.96,0.42,3.72-0.05,5.28c-0.48,1.56-1.25,2.84-2.34,3.86c-1.09,1-2.33,1.66-3.73,1.98c-1.04,0.23-2.08,0.26-3.13,0.1
			c-1.06-0.17-2.04-0.54-2.95-1.12c-0.91-0.58-1.7-1.32-2.38-2.24c-0.68-0.91-1.17-2.01-1.48-3.29c-0.08-0.36-0.01-0.69,0.21-0.99
			c0.22-0.29,0.51-0.48,0.87-0.56l13.35-2.97l1.13,2.2l-12.98,2.88l0.42-0.59l0.17,0.75c0.26,0.9,0.75,1.63,1.42,2.18
			c0.68,0.54,1.44,0.92,2.27,1.1c0.84,0.2,1.67,0.2,2.51,0.01c0.68-0.15,1.32-0.42,1.93-0.82c0.61-0.4,1.12-0.91,1.53-1.55
			c0.42-0.63,0.69-1.41,0.84-2.31c0.13-0.91,0.08-1.95-0.19-3.12c-0.29-1.31-0.81-2.4-1.55-3.27c-0.75-0.87-1.66-1.49-2.74-1.85
			c-1.07-0.37-2.24-0.4-3.5-0.12c-0.79,0.17-1.46,0.42-2.01,0.75c-0.54,0.34-0.98,0.7-1.33,1.1s-0.64,0.78-0.85,1.17
			c-0.25,0.26-0.52,0.43-0.81,0.49c-0.32,0.07-0.61,0.02-0.89-0.15c-0.28-0.17-0.45-0.42-0.52-0.73c-0.09-0.39,0.01-0.77,0.31-1.17
			c0.49-0.85,1.22-1.64,2.18-2.41C173.71,271.28,174.79,270.76,176.01,270.49z"/>
		<path class="st0" d="M160.62,273.2c0.39-0.02,0.72,0.09,1.01,0.36c0.29,0.26,0.44,0.58,0.47,0.97l0.96,15.03
			c0.03,0.42-0.08,0.77-0.33,1.05c-0.25,0.29-0.56,0.44-0.96,0.46c-0.42,0.03-0.76-0.08-1.03-0.33c-0.27-0.24-0.41-0.59-0.44-1
			l-0.3-4.53l0.47,0.7c-0.1,0.72-0.3,1.44-0.61,2.15c-0.32,0.7-0.73,1.34-1.25,1.92c-0.52,0.57-1.13,1.04-1.81,1.39
			c-0.7,0.36-1.48,0.56-2.33,0.62c-0.51,0.03-0.98-0.06-1.42-0.28c-0.45-0.21-0.68-0.53-0.71-0.97c-0.03-0.49,0.07-0.86,0.31-1.12
			c0.24-0.26,0.52-0.4,0.84-0.42c0.31-0.01,0.6,0.03,0.88,0.15c0.29,0.13,0.64,0.17,1.05,0.15c0.58-0.04,1.14-0.24,1.69-0.6
			c0.54-0.36,1.04-0.83,1.46-1.43c0.44-0.59,0.78-1.27,1.02-2.01c0.24-0.74,0.33-1.53,0.28-2.35l-0.54-8.4
			c-0.02-0.4,0.09-0.74,0.34-1.03C159.91,273.38,160.23,273.23,160.62,273.2z"/>
		<path class="st0" d="M143.47,292.85c0.13,0.01,0.29,0.08,0.48,0.23c0.17,0.15,0.25,0.33,0.22,0.57c-0.01,0.15-0.08,0.33-0.2,0.54
			l-2.24,3.3c-0.14,0.22-0.34,0.42-0.6,0.63c-0.24,0.2-0.53,0.29-0.86,0.28c-0.46-0.03-0.79-0.16-1.02-0.41
			c-0.22-0.25-0.32-0.58-0.3-0.97c0.03-0.18,0.08-0.35,0.16-0.51c0.08-0.16,0.19-0.33,0.33-0.51l2.76-2.65
			c0.17-0.18,0.36-0.31,0.59-0.39C143.01,292.88,143.24,292.84,143.47,292.85z M142.62,274.89c0.01-0.4,0.17-0.72,0.45-0.99
			c0.26-0.26,0.6-0.38,1-0.38c0.42,0.03,0.75,0.17,1,0.47c0.25,0.29,0.37,0.63,0.36,1.02l-0.67,15.33
			c-0.02,0.38-0.16,0.72-0.44,0.98c-0.29,0.27-0.63,0.39-1.04,0.38c-0.39-0.02-0.71-0.17-0.97-0.46c-0.25-0.29-0.37-0.63-0.36-1.02
			L142.62,274.89z"/>
		<path class="st0" d="M117.15,288.18c-0.38-0.07-0.69-0.26-0.91-0.56c-0.2-0.31-0.28-0.65-0.21-1.04l2.75-15.02
			c0.07-0.38,0.26-0.69,0.57-0.91c0.31-0.22,0.65-0.3,1.04-0.24c0.41,0.08,0.72,0.28,0.93,0.59c0.22,0.32,0.29,0.68,0.22,1.07
			l-0.59,3.24l-0.66-0.06c0.1-0.52,0.37-1.04,0.81-1.55c0.45-0.52,1.01-0.98,1.69-1.38c0.69-0.41,1.46-0.7,2.31-0.88
			c0.86-0.18,1.76-0.2,2.68-0.02c1.55,0.29,2.87,0.94,3.96,1.97c1.09,1.03,1.86,2.31,2.31,3.82c0.45,1.52,0.52,3.16,0.19,4.93
			c-0.33,1.79-0.98,3.32-1.94,4.56c-0.97,1.25-2.13,2.15-3.49,2.72c-1.36,0.56-2.8,0.7-4.32,0.42c-0.98-0.18-1.86-0.5-2.65-0.98
			c-0.78-0.47-1.43-1.04-1.96-1.7c-0.52-0.65-0.89-1.34-1.11-2.07c-0.23-0.72-0.28-1.41-0.15-2.07l0.85,0.37l-0.68,3.71
			c-0.07,0.39-0.26,0.69-0.56,0.91C117.92,288.2,117.56,288.27,117.15,288.18z M127.02,273.87c-1.14-0.2-2.18-0.09-3.16,0.33
			c-0.97,0.44-1.8,1.11-2.48,2.03c-0.69,0.91-1.15,2.01-1.39,3.28c-0.22,1.25-0.17,2.42,0.14,3.52c0.31,1.09,0.85,2.01,1.6,2.76
			c0.76,0.74,1.71,1.23,2.84,1.43c1.11,0.2,2.16,0.1,3.14-0.32c0.98-0.42,1.81-1.08,2.49-1.99c0.68-0.91,1.14-2,1.37-3.27
			c0.24-1.27,0.2-2.47-0.1-3.56c-0.31-1.1-0.84-2.03-1.61-2.77C129.11,274.55,128.16,274.08,127.02,273.87z"/>
		<path class="st0" d="M93.66,268.9c0.75,0.36,1.37,0.86,1.82,1.54c0.47,0.68,0.74,1.41,0.82,2.22c0.08,0.79-0.05,1.58-0.4,2.33
			c-0.37,0.79-0.89,1.41-1.57,1.86c-0.68,0.45-1.42,0.71-2.23,0.8c-0.79,0.09-1.57-0.05-2.33-0.4c-0.77-0.36-1.39-0.87-1.83-1.54
			c-0.46-0.67-0.72-1.4-0.81-2.21c-0.08-0.81,0.06-1.61,0.43-2.4c0.35-0.75,0.86-1.36,1.53-1.81c0.67-0.46,1.4-0.72,2.21-0.81
			C92.1,268.41,92.88,268.54,93.66,268.9z"/>
	</g>
</g>
</svg>
