<?xml version="1.0" encoding="utf-8"?>
<!-- Generator: Adobe Illustrator 27.4.1, SVG Export Plug-In . SVG Version: 6.00 Build 0)  -->
<svg version="1.1" id="Capa_1" xmlns="http://www.w3.org/2000/svg" xmlns:xlink="http://www.w3.org/1999/xlink" x="0px" y="0px"
	 viewBox="0 0 100 100" style="enable-background:new 0 0 100 100;" xml:space="preserve">
<style type="text/css">
	.st0{fill:#0E637C;}
	.st1{fill:#FFFFFF;}
</style>
<path class="st0" d="M2.5,50L2.5,50c0-26.4,21.6-48,48-48l0,0c26.4,0,48,21.6,48,48l0,0c0,26.4-21.6,48-48,48l0,0
	C24.1,98,2.5,76.4,2.5,50z"/>
<g>
	<path class="st1" d="M65.4,31.9c-1.8,0-3.3,1.5-3.3,3.3s1.5,3.3,3.3,3.3c1.8,0,3.3-1.5,3.3-3.3C68.7,33.4,67.2,31.9,65.4,31.9z"/>
	<path class="st1" d="M50.7,36.1c-7.6,0-13.9,6.2-13.9,13.9c0,7.6,6.2,13.9,13.9,13.9c7.6,0,13.9-6.2,13.9-13.9
		C64.6,42.4,58.4,36.1,50.7,36.1z M50.7,58.9c-4.9,0-8.9-4-8.9-8.9s4-8.9,8.9-8.9s8.9,4,8.9,8.9S55.6,58.9,50.7,58.9z"/>
	<path class="st1" d="M61.7,78.1H39.3c-9.3,0-16.9-7.6-16.9-16.9V38.8c0-9.3,7.6-16.9,16.9-16.9h22.5c9.3,0,16.9,7.6,16.9,16.9v22.5
		C78.6,70.6,71.1,78.1,61.7,78.1z M39.3,27.2c-6.4,0-11.6,5.2-11.6,11.6v22.5c0,6.4,5.2,11.6,11.6,11.6h22.5
		c6.4,0,11.6-5.2,11.6-11.6V38.8c0-6.4-5.2-11.6-11.6-11.6C61.8,27.2,39.3,27.2,39.3,27.2z"/>
</g>
</svg>
