<?xml version="1.0" encoding="utf-8"?>
<!-- Generator: Adobe Illustrator 27.4.1, SVG Export Plug-In . SVG Version: 6.00 Build 0)  -->
<svg version="1.1" id="Capa_1" xmlns="http://www.w3.org/2000/svg" xmlns:xlink="http://www.w3.org/1999/xlink" x="0px" y="0px"
	 viewBox="0 0 100 100" style="enable-background:new 0 0 100 100;" xml:space="preserve">
<style type="text/css">
	.st0{fill:#0E637C;}
</style>
<g>
	<path class="st0" d="M96.27,41.75c-1.99-10.98-7.25-20.11-15.65-27.41C74,8.58,66.31,5.05,57.67,3.55c-1.47-0.26-2.96-0.4-4.44-0.6
		c-2.26,0-4.53,0-6.8,0c-1.56,0.24-3.13,0.44-4.69,0.72C30.62,5.66,21.4,10.99,14.06,19.53C8.13,26.44,4.6,34.46,3.27,43.45
		C3.12,44.47,3,45.5,2.86,46.52c0,2.33,0,4.66,0,6.99c0.18,1.24,0.35,2.47,0.54,3.7c1.45,9.46,5.45,17.71,11.94,24.73
		c7.01,7.58,15.63,12.35,25.76,14.34c1.55,0.31,3.15,0.43,4.72,0.64c0.27,0.04,0.53,0.12,0.8,0.18c2.21,0,4.41,0,6.62,0
		c1.66-0.24,3.32-0.44,4.97-0.72c9.03-1.6,16.92-5.54,23.64-11.76c7.87-7.29,12.69-16.27,14.54-26.84c0.26-1.47,0.41-2.96,0.61-4.44
		c0-2.21,0-4.41,0-6.62C96.76,45.06,96.57,43.4,96.27,41.75z M76.74,61.62c-0.05,2.36-0.52,4.68-1.55,6.84
		c-2.42,5.09-6.61,7.73-12.07,8.2c-8.28,0.71-16.59,0.49-24.89,0.17c-3.9-0.15-7.52-1.24-10.47-4.02c-2.77-2.61-4.2-5.88-4.47-9.59
		c-0.31-4.39-0.32-20.82-0.19-24.62c0.18-4.83,1.67-9.13,5.67-12.23c2.34-1.81,5.04-2.9,7.95-2.98c7.31-0.22,14.63-0.24,21.95-0.28
		c2.66-0.01,5.32,0.12,7.89,0.96c5.62,1.83,8.83,5.76,9.81,11.48c0.39,2.28,0.5,4.63,0.51,6.95C76.91,48.88,76.86,55.25,76.74,61.62
		z"/>
	<path class="st0" d="M64.27,28.5c-2.13-0.47-4.37-0.58-6.56-0.58c-6.83,0.01-13.67,0.04-20.49,0.27c-3.01,0.1-5.61,1.43-7.4,4.01
		c-1.45,2.1-1.87,4.51-1.92,6.98c-0.08,3.58-0.08,19.27,0.16,23.52c0.27,4.57,3,7.86,7.46,8.83c2.13,0.47,4.37,0.59,6.56,0.59
		c6.83,0,13.67-0.03,20.49-0.26c4.59-0.15,7.91-3,8.88-7.51c0.46-2.17,0.57-4.44,0.57-6.66c0-6.77-0.03-13.54-0.26-20.3
		C71.6,32.76,68.79,29.49,64.27,28.5z M49.94,63.84c-7.73,0.01-13.87-6.14-13.85-13.87c0.02-7.68,6.15-13.79,13.85-13.78
		s13.81,6.14,13.81,13.83C63.76,57.71,57.64,63.84,49.94,63.84z M64.32,38.81c-1.76-0.01-3.19-1.47-3.18-3.24
		c0.01-1.76,1.46-3.21,3.21-3.21c1.78,0,3.27,1.51,3.23,3.29C67.55,37.4,66.08,38.83,64.32,38.81z"/>
	<path class="st0" d="M49.96,41.01c-5.04,0-9.04,3.99-9.04,9.01c0,5.02,4,9.02,9.03,9.01c4.98,0,8.98-3.99,8.99-8.96
		C58.95,45.02,54.97,41.01,49.96,41.01z"/>
</g>
</svg>
