<?xml version="1.0" encoding="utf-8"?>
<!-- Generator: Adobe Illustrator 27.4.1, SVG Export Plug-In . SVG Version: 6.00 Build 0)  -->
<svg version="1.1" id="Capa_1" xmlns="http://www.w3.org/2000/svg" xmlns:xlink="http://www.w3.org/1999/xlink" x="0px" y="0px"
	 viewBox="0 0 523 519" style="enable-background:new 0 0 523 519;" xml:space="preserve">
<style type="text/css">
	.st0{fill:#FFFFFF;}
</style>
<path class="st0" d="M515,242.46c0,10.65,0,21.3,0,31.95c-0.41,3.28-0.87,6.54-1.22,9.83c-5.47,50.55-23.78,95.89-56.04,135.21
	c-40.11,48.89-91.43,79.25-153.76,90.59c-9.44,1.72-19.02,2.66-28.53,3.96c-10.65,0-21.29,0-31.94,0c-1.28-0.28-2.54-0.72-3.83-0.83
	c-55.8-4.54-105.36-24.59-147.23-61.72C26.91,393.34-2.23,319.92,5.38,232.75C10.13,178.3,31.51,130.23,68,89.49
	C117.83,33.84,180.46,4.84,255.19,3.02c48.34-1.18,93.7,10.64,134.95,35.93c66.08,40.51,106.69,99.02,120.94,175.44
	C512.81,223.67,513.71,233.1,515,242.46z M259.62,110.91c-24.26,0.92-48.94,0.76-73.4,3.05c-29.09,2.73-51.32,17.27-64.08,44.36
	c-5.6,11.88-8.13,24.66-8.32,37.72c-0.5,34.43-0.82,68.86-0.84,103.3c-0.01,10.79,0.77,21.62,1.84,32.36
	c3.72,37.14,29.18,65.03,65.98,70.29c18.34,2.62,37.12,2.96,55.69,2.95c31.91-0.01,63.91,0.15,95.72-2.09
	c29.34-2.07,51.66-17.12,64.56-44.35c5.63-11.88,8.15-24.66,8.35-37.72c0.52-34.43,0.81-68.86,0.84-103.3
	c0.01-10.62-0.75-21.28-1.8-31.86c-3.94-39.68-32.26-68.48-71.92-71.78C308.25,111.85,284.09,111.83,259.62,110.91z"/>
<path class="st0" d="M259.12,137.68c22.4,0.63,44.54,0.68,66.6,2c31.41,1.88,51.46,21.07,52.32,52.48c1.2,44.18,1.18,88.45,0,132.63
	c-0.83,31.06-21.05,51.37-51.95,52.19c-44.34,1.17-88.76,1.18-133.1,0.01c-31-0.82-51.22-21.02-52.04-52.07
	c-1.18-44.52-1.15-89.11,0.04-133.63c0.81-30.3,21.25-49.76,51.64-51.57C214.84,138.4,237.14,138.32,259.12,137.68z M259.43,333.74
	c41.55,0.04,75.1-33.36,75.34-75.01c0.24-41.69-33.47-75.56-75.25-75.59c-41.56-0.03-75.11,33.36-75.34,75
	C183.94,299.81,217.68,333.7,259.43,333.74z M320.28,179.72c-0.15,9.75,7.3,17.65,16.89,17.89c9.95,0.25,18-7.34,18.17-17.14
	c0.16-9.89-7.58-17.86-17.42-17.91C328.22,162.5,320.43,170.09,320.28,179.72z"/>
<path class="st0" d="M308.37,258.61c-0.08,26.88-22.04,48.75-48.94,48.73c-27.07-0.02-49.02-22.19-48.84-49.33
	c0.18-26.83,22.29-48.61,49.19-48.48C286.65,209.67,308.45,231.69,308.37,258.61z"/>
</svg>
