<?xml version="1.0" encoding="utf-8"?>
<!-- Generator: Adobe Illustrator 27.4.1, SVG Export Plug-In . SVG Version: 6.00 Build 0)  -->
<svg version="1.1" id="Capa_1" xmlns="http://www.w3.org/2000/svg" xmlns:xlink="http://www.w3.org/1999/xlink" x="0px" y="0px"
	 viewBox="0 0 100 100" style="enable-background:new 0 0 100 100;" xml:space="preserve">
<style type="text/css">
	.st0{fill:#FFFFFF;}
</style>
<g>
	<path class="st0" d="M53.24,97.1c-2.21,0-4.41,0-6.62,0c-0.27-0.06-0.53-0.14-0.8-0.18c-1.57-0.21-3.17-0.33-4.72-0.64
		c-10.13-1.99-18.75-6.76-25.76-14.34C8.85,74.92,4.85,66.67,3.4,57.21c-0.19-1.23-0.36-2.46-0.54-3.7c0-2.33,0-4.66,0-6.99
		c0.14-1.02,0.26-2.05,0.41-3.07c1.33-8.99,4.86-17.01,10.79-23.92C21.4,10.99,30.62,5.66,41.74,3.67c1.56-0.28,3.13-0.48,4.69-0.72
		c2.27,0,4.54,0,6.8,0c1.48,0.2,2.97,0.34,4.44,0.6C66.31,5.05,74,8.58,80.62,14.34c8.4,7.3,13.66,16.43,15.65,27.41
		c0.3,1.65,0.49,3.31,0.73,4.97c0,2.21,0,4.41,0,6.62c-0.2,1.48-0.35,2.97-0.61,4.44c-1.85,10.57-6.67,19.55-14.54,26.84
		c-6.72,6.22-14.61,10.16-23.64,11.76C56.56,96.66,54.9,96.86,53.24,97.1z M23.29,63.22c0.27,3.71,1.7,6.98,4.47,9.59
		c2.95,2.78,6.57,3.87,10.47,4.02c8.3,0.32,16.61,0.54,24.89-0.17c5.46-0.47,9.65-3.11,12.07-8.2c1.03-2.16,1.5-4.48,1.55-6.84
		c0.12-6.37,0.17-12.74,0.14-19.12c-0.01-2.32-0.12-4.67-0.51-6.95c-0.98-5.72-4.19-9.65-9.81-11.48c-2.57-0.84-5.23-0.97-7.89-0.96
		c-7.32,0.04-14.64,0.06-21.95,0.28c-2.91,0.08-5.61,1.17-7.95,2.98c-4,3.1-5.49,7.4-5.67,12.23C22.97,42.4,22.98,58.83,23.29,63.22
		z"/>
	<path class="st0" d="M27.9,39.18c0.05-2.47,0.47-4.88,1.92-6.98c1.79-2.58,4.39-3.91,7.4-4.01c6.82-0.23,13.66-0.26,20.49-0.27
		c2.19,0,4.43,0.11,6.56,0.58c4.52,0.99,7.33,4.26,7.49,8.89c0.23,6.76,0.26,13.53,0.26,20.3c0,2.22-0.11,4.49-0.57,6.66
		c-0.97,4.51-4.29,7.36-8.88,7.51c-6.82,0.23-13.66,0.26-20.49,0.26c-2.19,0-4.43-0.12-6.56-0.59c-4.46-0.97-7.19-4.26-7.46-8.83
		C27.82,58.45,27.82,42.76,27.9,39.18z M63.75,50.02c0-7.69-6.11-13.82-13.81-13.83c-7.7-0.01-13.83,6.1-13.85,13.78
		c-0.02,7.73,6.12,13.88,13.85,13.87C57.64,63.84,63.76,57.71,63.75,50.02z M64.32,38.81c1.76,0.02,3.23-1.41,3.26-3.16
		c0.04-1.78-1.45-3.29-3.23-3.29c-1.75,0-3.2,1.45-3.21,3.21C61.13,37.34,62.56,38.8,64.32,38.81z"/>
	<path class="st0" d="M40.92,50.02c0-5.02,4-9.01,9.04-9.01c5.01,0,8.99,4.01,8.98,9.06c-0.01,4.97-4.01,8.96-8.99,8.96
		C44.92,59.04,40.92,55.04,40.92,50.02z"/>
</g>
</svg>
