<?xml version="1.0" standalone="no"?>
<!DOCTYPE svg PUBLIC "-//W3C//DTD SVG 20010904//EN"
 "http://www.w3.org/TR/2001/REC-SVG-20010904/DTD/svg10.dtd">
<svg version="1.0" xmlns="http://www.w3.org/2000/svg"
 width="100.000000pt" height="100.000000pt" viewBox="0 0 100.000000 100.000000"
 preserveAspectRatio="xMidYMid meet">
<metadata>
Created by potrace 1.14, written by Peter Selinger 2001-2017
</metadata>
<g transform="translate(0.000000,100.000000) scale(0.100000,-0.100000)"
fill="#000000" stroke="none">
<path d="M0 500 l0 -500 500 0 500 0 0 500 0 500 -500 0 -500 0 0 -500z m773
385 c0 -11 -26 -81 -57 -155 -30 -74 -56 -141 -56 -148 0 -7 14 -15 30 -18 42
-9 37 -24 -7 -21 -36 2 -36 1 -50 -48 -7 -28 -12 -83 -11 -124 3 -78 -6 -95
-36 -66 -22 23 -21 108 4 187 11 34 20 64 20 65 0 1 -18 4 -41 8 l-41 7 -96
-94 c-100 -97 -146 -131 -195 -143 -55 -14 -72 37 -42 127 30 87 87 118 230
123 l90 4 93 113 c51 62 103 134 115 161 22 48 54 62 50 22z m68 -633 c-6 -2
-11 -10 -11 -18 0 -9 -5 -12 -11 -9 -6 4 -8 13 -5 21 3 8 2 13 -2 13 -16 -3
-23 2 -17 11 3 6 15 5 31 -2 15 -7 21 -14 15 -16z m-626 -33 c0 -8 -12 -15
-30 -17 -30 -4 -30 -4 -11 17 21 23 41 23 41 0z m555 -19 c6 -11 9 -20 7 -20
-2 0 -12 9 -22 20 -10 11 -13 20 -7 20 6 0 16 -9 22 -20z m-57 -40 c3 -11 1
-18 -3 -15 -5 3 -10 -1 -12 -7 -3 -8 -10 -4 -17 11 -11 19 -11 25 0 32 17 10
25 4 32 -21z m-433 3 c0 -21 -20 -55 -20 -35 0 6 -7 12 -17 12 -14 0 -14 2 2
20 22 25 35 26 35 3z m70 -30 c0 -15 2 -16 10 -3 9 13 10 13 10 0 0 -8 -5 -22
-10 -30 -7 -12 -10 -12 -10 -1 0 8 -6 11 -16 7 -12 -5 -15 -2 -10 10 3 8 6 20
6 25 0 5 5 9 10 9 6 0 10 -8 10 -17z m265 7 c-3 -5 -1 -10 5 -10 6 0 8 -4 5
-10 -3 -5 -1 -10 6 -10 10 0 10 -3 1 -12 -10 -10 -15 -10 -22 2 -13 20 -12 50
1 50 5 0 7 -4 4 -10z m-67 -33 c3 -22 -1 -27 -17 -27 -17 0 -21 6 -21 31 0 24
4 30 18 27 10 -2 18 -14 20 -31z m-98 14 c0 -5 2 -16 5 -23 4 -9 -2 -14 -15
-14 -11 0 -20 6 -20 14 0 7 4 10 10 7 6 -3 7 1 4 9 -3 9 -1 16 5 16 6 0 11 -4
11 -9z"/>
<path d="M619 688 c-41 -51 -76 -96 -78 -101 -1 -4 16 -7 39 -5 l41 3 39 95
c22 51 38 95 36 97 -1 1 -36 -39 -77 -89z"/>
<path d="M320 548 c-34 -17 -51 -35 -68 -70 -31 -62 -41 -128 -19 -128 22 0
123 79 197 154 l64 66 -65 0 c-47 0 -77 -6 -109 -22z"/>
<path d="M520 105 c0 -8 5 -15 10 -15 6 0 10 7 10 15 0 8 -4 15 -10 15 -5 0
-10 -7 -10 -15z"/>
</g>
</svg>
